<?xml version="1.0" encoding="utf-8"?>
<!-- Generator: Adobe Illustrator 19.2.1, SVG Export Plug-In . SVG Version: 6.00 Build 0)  -->
<svg version="1.1" id="Laag_1" xmlns="http://www.w3.org/2000/svg" xmlns:xlink="http://www.w3.org/1999/xlink" x="0px" y="0px"
	 viewBox="0 0 142 137.3" style="enable-background:new 0 0 142 137.3;" xml:space="preserve">
<style type="text/css">
	.st0{font-family:'Lato-Light';}
	.st1{font-size:12px;}
	.st2{fill:#ED2891;}
	.st3{fill:#7C287D;}
	.st4{fill:#9DD08A;}
	.st5{font-family:'Lato-Regular';}
</style>
<g>
	<text transform="matrix(1 0 0 1 50.0092 118.4071)" class="st0 st1">Typography</text>
	<path class="st2" d="M39.9,121l-6.7-4.3c-0.4-0.2-0.5-0.7-0.2-1l4.3-6.7c0.2-0.4,0.7-0.5,1-0.2L45,113c0.4,0.2,0.5,0.7,0.2,1
		l-4.3,6.7C40.7,121.2,40.2,121.3,39.9,121z"/>
	<text transform="matrix(1 0 0 1 33.7757 57.907)" class="st0 st1">Interactive design</text>
	<circle class="st3" cx="23.5" cy="54.4" r="5.6"/>
	<text transform="matrix(1 0 0 1 40.7869 86.9074)" class="st0 st1">Graphic design</text>
	<path class="st4" d="M34.9,88.9l-9.4-4.5c-0.2-0.1-0.3-0.4,0-0.6l8.6-5.9c0.2-0.1,0.5,0,0.5,0.3l0.8,10.4
		C35.4,88.8,35.2,89,34.9,88.9z"/>
	<text transform="matrix(1 0 0 1 42.5534 23.4168)" class="st5 st1">~Legenda~</text>
</g>
</svg>
