<?xml version="1.0" encoding="utf-8"?>
<!-- Generator: Adobe Illustrator 19.2.1, SVG Export Plug-In . SVG Version: 6.00 Build 0)  -->
<svg version="1.1" id="infograph" xmlns="http://www.w3.org/2000/svg" xmlns:xlink="http://www.w3.org/1999/xlink" x="0px" y="0px"
	 viewBox="0 0 1085.2 2463.2" style="enable-background:new 0 0 1085.2 2463.2;" xml:space="preserve">
<style type="text/css">
	.st0{opacity:0.36;fill:none;stroke:#010101;stroke-miterlimit:10;}
	.st1{opacity:0.5;fill:#E2E4F3;}
	.st2{opacity:0.2;fill:#FEE686;}
	.st3{fill:#010101;}
	.st4{font-family:'OratorStd-Slanted';}
	.st5{font-size:31.5974px;}
	.st6{fill:#DBAFC1;}
	.st7{fill:#675FAA;}
	.st8{fill:#86636E;}
	.st9{fill:#9FB0A1;}
	.st10{font-size:28.5839px;}
	.st11{fill:#D77E28;}
	.st12{fill:#4E6BB3;}
	.st13{fill:#9D2990;}
	.st14{fill:#D21D55;}
	.st15{fill:#E2E4F3;}
	.st16{fill:#FEE686;}
	.st17{opacity:0.2;fill:#FAF288;}
	.st18{opacity:0.2;fill:#20BCB8;}
	.st19{fill:#008080;}
	.st20{fill:#B1E0E6;}
	.st21{fill:#70C169;}
	.st22{fill:#FFF0D6;}
	.st23{fill:#F47F72;}
	.st24{fill:#DB7093;}
	.st25{fill:#D8BFD7;}
	.st26{fill:#F2634B;}
	.st27{fill:#FAF288;}
	.st28{fill:#23BCB8;}
	.st29{fill:#20BCB8;}
	.st30{font-size:26.7649px;}
</style>
<path id="hoofdlijn" class="st0" d="M54.3,1959.5l417.9,444.8l-30.2-78.5l86.5-50l-32.6-50l250.5-59.5l-81.1-52.3l169.1-19
	l-58.5-67.4l145.6-42.8l-555.8-427.3l434.5,110.2l-225.2,107.5l220,191.5l-415,102.3L97,1840.6l925.2-323.5l-76.1-28.5L933,1602.8
	l-48.8-26.2l-19,84.4l-36.9-7.1l124.9,262.8l33.3-262.8l-450,296.1l-421.7-404.3L449,1854.9l51.7-264.6l28-52.6v-68l-5.5,6.2
	l36.5-187.1L179.1,1315l396,338.9l-356.2,177.2l590.5-30.9l-590.5-155.8l111.8,210.5L81.6,1672.9L551,1846.6l-326.7-44l478.1-509
	l134.4,291.4l-113.1-169l-297.7,239.3l16.1-317.5l-157.6,152.1l463-38.1l-93.9,192.7l-72.3-170.1L801,1253.1L920,1420.8L544,1613.5
	l-343.5-8.3l203.4-189.1l-197.4,45.2l67.9-133.9l235.3,192.2l80.4-24.6l169.3-47.2l-202.9-106.6l-123.7,182.1l161.8-91.2
	c0,0-287.3-23.6-287.4-23.3c0,0,186.5-242.2,401.7-964.4c2.7-9.2-5.5-18.4-8.7-27.5h-44l-2-62.3l-84,15.8l-3-40l-77.5,15v-71
	l-117.3,47l-4.2-29l-237,246l424.4,590.8l24.3,12.9l-28.2,7.3l3.9-20.2l2.9-40.4l13.8-5.7l4.9,31.3l-18.7-25.6l18.2-30.8l-17.4-5.9
	l-2.1,20.5l19.5-14.7l-3.9-37.3l-14.2,21l18.5-4l-4.3-17L228.4,1138l-17.1-5.8l-4.8,13.1l22.2,5V1138l-12.7-48.6l15,5.5l-16.3,22.9
	l-10.2-6l11.3-22.4l12-29.2l-22-8l0.7,20.2l17.5,7.3l3.8-19.5l-5.5-42.3l-13.7,6.9l4.6,13.9l18.7-10.8L110.2,904.7l20.5,55.8
	l0.9-34.9l-48.7-3.9l144.8-10.6l20,74.3L79.7,996.6l-66.5,62.7l351,26.7l664.1-128.9l-73.3,131.5l-155.5,16.7L701.1,991l369.1-178.2
	L887.6,996.6L441.9,368.3l168,107l-70.8,205L440.7,576l-46.4-183.2L245.3,612.7l528.2-114l-147.8-73.3l130.3,322.2l72.1-258.2
	L506.5,667.2l162,67l52.6,27.9l62.9,36.9L970.2,537L773.5,672l-185,317.6l420-331.6l-299-137.3l-58.2,302.5l335.1-128L533.9,531.2
	l11.9,336.7l2.9,0.9v78.9l-368.5-81.4L342.8,794l196.3-113.6l50.3-32l44.5,284.3L223.2,679l139.6,165.2l337.4-139.6L388.4,965.2
	L492,682.5l162.9,222.2l-400.3-135l-14,135.5l346.7-261.2L194.1,460.3l179.2,265.3l190.8-249l-235,115.2l146.6,252.5l-176.8-91.9
	l159.8-185.1L299,647.9l47.1,143.7"/>
<rect id="web-skills" x="507.4" y="994.9" class="st1" width="353.1" height="181.1"/>
<rect id="adobe" x="157.9" y="996" class="st2" width="319.5" height="180"/>
<g id="html-css">
	<text id="XMLID_33_" transform="matrix(1 0 0 1 583.7941 1039.6395)" class="st3 st4 st5">html &amp; css</text>
	<g>
		<polygon class="st6" points="572.9,1020.6 558.7,1041.6 577.2,1037.6 		"/>
	</g>
</g>
<g id="php-mysql">
	<g>
		<text id="XMLID_32_" transform="matrix(1 0 0 1 583.7941 1070.8143)" class="st3 st4 st5">php &amp; mysql</text>
	</g>
	<g>
		<polygon class="st7" points="557.3,1072.5 559.4,1052 576.8,1057.8 		"/>
	</g>
</g>
<g id="javascript-">
	<g>
		<text id="XMLID_31_" transform="matrix(1 0 0 1 583.7941 1107.1854)" class="st3 st4 st5">javacript</text>
	</g>
	<g>
		<polygon class="st8" points="577.4,1114.3 558.6,1088.7 572.5,1083 		"/>
	</g>
</g>
<g id="cms-systemen">
	<g>
		<text id="XMLID_30_" transform="matrix(1 0 0 1 583.7941 1147.7137)" class="st3 st4 st5">cms systemen</text>
	</g>
	<g>
		<polygon class="st9" points="555.7,1129.1 551.8,1149.2 580,1141.9 		"/>
	</g>
</g>
<g id="illustrator-">
	<text id="XMLID_27_" transform="matrix(1 0 0 1 234.1938 1036.1107)" class="st3 st4 st10">illustrator</text>
	<g>
		<polygon class="st11" points="231.9,1028 222.4,1017.9 208.7,1024.9 213.2,1038.8 		"/>
	</g>
</g>
<g id="photoshop_1_">
	<text id="XMLID_26_" transform="matrix(1 0 0 1 234.1938 1073.7133)" class="st3 st4 st10">photoshop</text>
	<g>
		<polygon class="st12" points="224.1,1079.7 227.9,1060.2 205.9,1052.2 206.6,1072.4 		"/>
	</g>
</g>
<g id="after-effects">
	<text id="XMLID_28_" transform="matrix(1 0 0 1 234.1938 1111.3158)" class="st3 st4 st10">after effects</text>
	<g>
		<polygon class="st13" points="204.6,1111.8 215.9,1089.4 231.1,1094.9 214.8,1117.8 		"/>
	</g>
</g>
<g id="indesign-">
	<text id="XMLID_29_" transform="matrix(1 0 0 1 234.1938 1148.9183)" class="st3 st4 st10">indesign</text>
	<g>
		<polygon class="st14" points="228.4,1150.1 228.4,1138 211.3,1132.2 206.5,1145.3 		"/>
	</g>
</g>
<g id="skills_x5F_web">
	<g id="talen">
		<g id="javascr">
			<polygon class="st8" points="555.2,766.2 603.2,746.4 620.2,854.9 			"/>
			<path class="st15" d="M602,748.5l15.8,100.6l-60.2-82.2L602,748.5 M604.4,744.2l-51.5,21.3l69.8,95.2L604.4,744.2L604.4,744.2z"
				/>
		</g>
		<g id="php">
			<polygon class="st7" points="255.9,771.8 365.7,808.8 242.5,901.5 			"/>
			<path class="st15" d="M257.2,773.8l105.4,35.5l-118.2,88.9L257.2,773.8 M254.6,769.7l-14,135l128.3-96.4L254.6,769.7L254.6,769.7
				z"/>
		</g>
		<g id="html">
			<polygon class="st6" points="393.6,396.4 437.5,569.6 248.6,610.4 			"/>
			<path class="st15" d="M393,400l42.7,168.5L252,608.2L393,400 M394.2,392.8L245.3,612.7l194.1-41.9L394.2,392.8L394.2,392.8z"/>
		</g>
		<g id="cms">
			<polygon class="st9" points="669.6,736.4 717,761.5 662,775.8 			"/>
			<g>
				<path class="st15" d="M670.7,738.7l42.2,22.4L664,773.7L670.7,738.7 M668.5,734.1l-8.4,43.7l61-15.8L668.5,734.1L668.5,734.1z"
					/>
			</g>
		</g>
	</g>
	<g id="adobeee">
		<g id="photoshop">
			<polygon class="st12" points="540.6,679.4 535.4,533.4 694.5,591 667.4,732 			"/>
			<g>
				<path class="st16" d="M537,535.6L692.8,592l-26.5,137.9L542,678.3L537,535.6 M533.9,531.2l5.2,149.2l129.4,53.7l27.7-144
					L533.9,531.2L533.9,531.2z"/>
			</g>
		</g>
		<g id="indesign">
			<polygon class="st14" points="408.3,915.2 438.3,833.3 547,869.9 547,945.9 			"/>
			<g>
				<path class="st16" d="M439.2,835.2L545.5,871v73l-135.2-29.9L439.2,835.2 M437.4,831.4l-31.1,84.9l142.2,31.4v-78.9L437.4,831.4
					L437.4,831.4z"/>
			</g>
		</g>
		<g id="afterEffects">
			<polygon class="st13" points="723.1,761.4 791.3,626.1 881.7,658.9 783.6,796.8 			"/>
			<g>
				<path class="st16" d="M792,628l87.3,31.6l-96.2,135.2l-58.1-34L792,628 M790.5,624.3L721.1,762l62.9,36.9l100-140.7L790.5,624.3
					L790.5,624.3z"/>
			</g>
		</g>
		<g id="illustrator">
			<polygon class="st11" points="300.7,648.6 440.4,578.1 536.7,680 346.8,789.6 			"/>
			<g>
				<path class="st16" d="M440.1,579.9l94.2,99.7L347.7,787.3l-45.1-138L440.1,579.9 M440.7,576.3l-141.9,71.6l47.1,144l193.1-111.4
					L440.7,576.3L440.7,576.3z"/>
			</g>
		</g>
	</g>
</g>
<rect id="hobby" x="507.4" y="1926.9" class="st17" width="353.1" height="181.1"/>
<rect id="peroniliteit" x="157.9" y="1928" class="st18" width="319.5" height="180"/>
<g id="discipline-">
	<text id="XMLID_36_" transform="matrix(1 0 0 1 234.1938 2003.9946)" class="st3 st4 st10">discipline</text>
	<g>
		<circle class="st19" cx="216.9" cy="1996.2" r="10.7"/>
	</g>
</g>
<g id="presenteren-_1_">
	<g id="presenteren-">
		<text id="XMLID_37_" transform="matrix(1 0 0 1 234.1938 1968.9946)" class="st3 st4 st10">presenteren</text>
	</g>
	<g>
		<circle class="st20" cx="216.9" cy="1961.2" r="10.7"/>
	</g>
</g>
<g id="motivatie-_1_">
	<text id="motivatie-" transform="matrix(1 0 0 1 234.1938 2041.9946)" class="st3 st4 st10">motifatie</text>
	<g>
		<circle class="st21" cx="216.9" cy="2034.2" r="10.7"/>
	</g>
</g>
<g id="flexibiliteit-_1_">
	<text id="flexibiliteit-" transform="matrix(1 0 0 1 234.1938 2080.9946)" class="st3 st4 st10">flexibiliteit</text>
	<g>
		<circle class="st22" cx="216.9" cy="2073.2" r="10.7"/>
	</g>
</g>
<g id="illustrating-_1_">
	<text id="illustrating-" transform="matrix(1 0 0 1 583.7941 1970.812)" class="st3 st4 st5">illustrating</text>
	<g>
		<polygon class="st23" points="554.6,1971.5 546,1963.5 555.9,1953.3 568.1,1956.6 575.6,1970.4 		"/>
	</g>
</g>
<g id="design-_1_">
	<g id="design-">
		<text id="XMLID_40_" transform="matrix(1 0 0 1 583.7941 2005.812)" class="st3 st4 st5">design</text>
	</g>
	<g>
		<polygon class="st24" points="558.7,2007.5 545.4,2004 548.8,1991.8 566.2,1987 575.9,2001.5 		"/>
	</g>
</g>
<g id="tekenkunsten-_1_">
	<g id="tekenkunsten-">
		<text id="XMLID_39_" transform="matrix(1 0 0 1 583.7941 2040.812)" class="st3 st4 st5">tekenkunsten</text>
	</g>
	<g>
		<polygon class="st25" points="565.2,2045.3 550.1,2041.6 550.7,2030.7 571.3,2019.2 571.3,2033.8 		"/>
	</g>
</g>
<g id="koken-_1_">
	<g id="koken-">
		<text id="XMLID_38_" transform="matrix(1 0 0 1 583.7941 2078.812)" class="st3 st4 st5">koken</text>
	</g>
	<g>
		<polygon class="st26" points="554.3,2079.5 547.2,2073.4 560.6,2061 574.2,2072 573.9,2077.9 		"/>
	</g>
</g>
<g id="persoonlijkheid">
	<g id="hobbieees">
		<g id="koken">
			<polygon class="st26" points="355,1463.5 394.2,1427.1 434.4,1460 433.6,1476 375.2,1480.8 			"/>
			<path class="st27" d="M394.2,1429.1l38.6,31.5l-0.7,14l-56.4,4.6l-18.4-15.8L394.2,1429.1 M394.1,1425.1l-41.4,38.5l22,18.8
				l60.3-5l0.9-18.1L394.1,1425.1L394.1,1425.1z"/>
		</g>
		<g id="illustrating">
			<polygon class="st23" points="341.5,1752.5 424.4,1667 528,1694.7 591,1810.1 413.5,1819.1 			"/>
			<path class="st27" d="M424.9,1668.6l102.1,27.3l61.6,112.8l-174.5,8.8l-70.4-65.1L424.9,1668.6 M424,1665.3l-84.6,87.3l73.6,68.1
				l180.6-9.2L529,1693.4L424,1665.3L424,1665.3z"/>
		</g>
		<g id="design">
			<polygon class="st24" points="561.5,1604.4 591.3,1496.2 746.9,1453.5 832.8,1581.8 679.2,1635.5 			"/>
			<path class="st27" d="M746.2,1455.2l84.2,125.8l-151.3,52.9l-115.8-30.6l29.1-105.9L746.2,1455.2 M747.5,1451.7L590.1,1495
				l-30.4,110.5l119.6,31.6l155.8-54.5L747.5,1451.7L747.5,1451.7z"/>
		</g>
		<g id="tekenkunsten">
			<polygon class="st25" points="431.9,1572.8 434.3,1524.1 527.3,1472 527.3,1537 499.6,1589.5 			"/>
			<path class="st27" d="M525.8,1474.5v62.1l-27,51.1l-65.4-16l2.3-46.7L525.8,1474.5 M528.8,1469.4l-96,53.8l-2.5,50.8l70.1,17.2
				l28.4-53.8V1469.4L528.8,1469.4z"/>
		</g>
	</g>
	<g id="rondjes">
		<g id="flexibiliteit">
			<path class="st22" d="M594.7,1478.6c-32.3,0-58.5-26.2-58.5-58.5c0-32.3,26.2-58.5,58.5-58.5c32.3,0,58.5,26.2,58.5,58.5
				C653.2,1452.4,627,1478.6,594.7,1478.6z"/>
			<path class="st28" d="M594.7,1363.1c31.4,0,57,25.6,57,57c0,31.4-25.6,57-57,57s-57-25.6-57-57
				C537.7,1388.7,563.3,1363.1,594.7,1363.1 M594.7,1360.1c-33.1,0-60,26.9-60,60c0,33.1,26.9,60,60,60s60-26.9,60-60
				C654.7,1387,627.8,1360.1,594.7,1360.1L594.7,1360.1z"/>
		</g>
		<g id="motivatie">
			<path class="st21" d="M698.2,1841.9c-50.8,0-92.1-41.3-92.1-92.1c0-50.8,41.3-92.1,92.1-92.1s92.1,41.3,92.1,92.1
				C790.3,1800.6,749,1841.9,698.2,1841.9z"/>
			<path class="st28" d="M698.2,1659.3c49.9,0,90.6,40.6,90.6,90.6s-40.6,90.6-90.6,90.6s-90.6-40.6-90.6-90.6
				S648.3,1659.3,698.2,1659.3 M698.2,1656.3c-51.7,0-93.6,41.9-93.6,93.6c0,51.7,41.9,93.6,93.6,93.6c51.7,0,93.6-41.9,93.6-93.6
				C791.8,1698.2,749.9,1656.3,698.2,1656.3L698.2,1656.3z"/>
		</g>
		<g id="presenteren">
			<path class="st20" d="M519.4,1661.5c-13,0-23.7-10.6-23.7-23.7s10.6-23.7,23.7-23.7c13,0,23.7,10.6,23.7,23.7
				S532.4,1661.5,519.4,1661.5z"/>
			<path class="st28" d="M519.4,1615.7c12.2,0,22.2,9.9,22.2,22.2c0,12.2-9.9,22.2-22.2,22.2c-12.2,0-22.2-9.9-22.2-22.2
				C497.2,1625.6,507.2,1615.7,519.4,1615.7 M519.4,1612.7c-13.9,0-25.2,11.3-25.2,25.2c0,13.9,11.3,25.2,25.2,25.2
				c13.9,0,25.2-11.3,25.2-25.2C544.5,1624,533.3,1612.7,519.4,1612.7L519.4,1612.7z"/>
		</g>
		<g id="discipline">
			<path class="st19" d="M294.8,1693.6c-54,0-98-44-98-98s44-98,98-98s98,44,98,98S348.9,1693.6,294.8,1693.6z"/>
			<path class="st29" d="M294.8,1499.1c53.2,0,96.5,43.3,96.5,96.5s-43.3,96.5-96.5,96.5s-96.5-43.3-96.5-96.5
				S241.6,1499.1,294.8,1499.1 M294.8,1496.1c-55,0-99.5,44.5-99.5,99.5c0,55,44.5,99.5,99.5,99.5s99.5-44.5,99.5-99.5
				C394.3,1540.6,349.8,1496.1,294.8,1496.1L294.8,1496.1z"/>
		</g>
	</g>
</g>
<text id="info" transform="matrix(1 0 0 1 112.2624 117.0531)"><tspan x="0" y="0" class="st3 st4 st30">ik zou een skill percentage kunnen zetten,</tspan><tspan x="0" y="32.1" class="st3 st4 st30">maar ik vind dat je skills nooit kan limiteren</tspan><tspan x="0" y="64.2" class="st3 st4 st30">met een percentage.</tspan><tspan x="0" y="96.4" class="st3 st4 st30">dus heb ik een infographic gemaakt</tspan><tspan x="0" y="128.5" class="st3 st4 st30">In de infografic hieronder kunt u de niveau’s </tspan><tspan x="0" y="160.6" class="st3 st4 st30">van mijn skills makkelijk aflezen.</tspan><tspan x="0" y="192.7" class="st3 st4 st30">Naast de lijst van skills ziet u een kleur. </tspan><tspan x="0" y="224.8" class="st3 st4 st30">De grote van de kleurvlak geeft in de infografic </tspan><tspan x="0" y="256.9" class="st3 st4 st30">aan het niveau van mijn skills voor die </tspan><tspan x="0" y="289.1" class="st3 st4 st30">software,talen en kunsten.</tspan><tspan x="0" y="321.2" class="st3 st4 st30"> </tspan></text>
</svg>
